<?xml version="1.0" encoding="utf-8" standalone="no"?>
<!DOCTYPE svg PUBLIC "-//W3C//DTD SVG 1.1//EN"
  "http://www.w3.org/Graphics/SVG/1.1/DTD/svg11.dtd">
<svg xmlns:xlink="http://www.w3.org/1999/xlink" width="511.017187pt" height="339.574375pt" viewBox="0 0 511.017187 339.574375" xmlns="http://www.w3.org/2000/svg" version="1.1">
 <metadata>
  <rdf:RDF xmlns:dc="http://purl.org/dc/elements/1.1/" xmlns:cc="http://creativecommons.org/ns#" xmlns:rdf="http://www.w3.org/1999/02/22-rdf-syntax-ns#">
   <cc:Work>
    <dc:type rdf:resource="http://purl.org/dc/dcmitype/StillImage"/>
    <dc:date>2026-03-21T18:52:18.847925</dc:date>
    <dc:format>image/svg+xml</dc:format>
    <dc:creator>
     <cc:Agent>
      <dc:title>Matplotlib v3.10.8, https://matplotlib.org/</dc:title>
     </cc:Agent>
    </dc:creator>
   </cc:Work>
  </rdf:RDF>
 </metadata>
 <defs>
  <style type="text/css">*{stroke-linejoin: round; stroke-linecap: butt}</style>
 </defs>
 <g id="figure_1">
  <g id="patch_1">
   <path d="M 0 339.574375 
L 511.017187 339.574375 
L 511.017187 0 
L 0 0 
z
" style="fill: #ffffff"/>
  </g>
  <g id="axes_1">
   <g id="patch_2">
    <path d="M 57.417188 299.518125 
L 503.817187 299.518125 
L 503.817187 22.318125 
L 57.417188 22.318125 
z
" style="fill: #ffffff"/>
   </g>
   <g id="matplotlib.axis_1">
    <g id="xtick_1">
     <g id="line2d_1">
      <path d="M 77.708097 299.518125 
L 77.708097 22.318125 
" clip-path="url(#pb95178a033)" style="fill: none; stroke: #cccccc; stroke-linecap: round"/>
     </g>
     <g id="text_1">
      <text style="font-size: 9px; font-family: 'Arial', 'DejaVu Sans', 'Liberation Sans', 'Bitstream Vera Sans', sans-serif; text-anchor: middle; fill: #262626" x="77.708097" y="315.856719" transform="rotate(-0 77.708097 315.856719)">−10.0</text>
     </g>
    </g>
    <g id="xtick_2">
     <g id="line2d_2">
      <path d="M 128.435369 299.518125 
L 128.435369 22.318125 
" clip-path="url(#pb95178a033)" style="fill: none; stroke: #cccccc; stroke-linecap: round"/>
     </g>
     <g id="text_2">
      <text style="font-size: 9px; font-family: 'Arial', 'DejaVu Sans', 'Liberation Sans', 'Bitstream Vera Sans', sans-serif; text-anchor: middle; fill: #262626" x="128.435369" y="315.856719" transform="rotate(-0 128.435369 315.856719)">−7.5</text>
     </g>
    </g>
    <g id="xtick_3">
     <g id="line2d_3">
      <path d="M 179.162642 299.518125 
L 179.162642 22.318125 
" clip-path="url(#pb95178a033)" style="fill: none; stroke: #cccccc; stroke-linecap: round"/>
     </g>
     <g id="text_3">
      <text style="font-size: 9px; font-family: 'Arial', 'DejaVu Sans', 'Liberation Sans', 'Bitstream Vera Sans', sans-serif; text-anchor: middle; fill: #262626" x="179.162642" y="315.856719" transform="rotate(-0 179.162642 315.856719)">−5.0</text>
     </g>
    </g>
    <g id="xtick_4">
     <g id="line2d_4">
      <path d="M 229.889915 299.518125 
L 229.889915 22.318125 
" clip-path="url(#pb95178a033)" style="fill: none; stroke: #cccccc; stroke-linecap: round"/>
     </g>
     <g id="text_4">
      <text style="font-size: 9px; font-family: 'Arial', 'DejaVu Sans', 'Liberation Sans', 'Bitstream Vera Sans', sans-serif; text-anchor: middle; fill: #262626" x="229.889915" y="315.856719" transform="rotate(-0 229.889915 315.856719)">−2.5</text>
     </g>
    </g>
    <g id="xtick_5">
     <g id="line2d_5">
      <path d="M 280.617188 299.518125 
L 280.617188 22.318125 
" clip-path="url(#pb95178a033)" style="fill: none; stroke: #cccccc; stroke-linecap: round"/>
     </g>
     <g id="text_5">
      <text style="font-size: 9px; font-family: 'Arial', 'DejaVu Sans', 'Liberation Sans', 'Bitstream Vera Sans', sans-serif; text-anchor: middle; fill: #262626" x="280.617188" y="315.856719" transform="rotate(-0 280.617188 315.856719)">0.0</text>
     </g>
    </g>
    <g id="xtick_6">
     <g id="line2d_6">
      <path d="M 331.34446 299.518125 
L 331.34446 22.318125 
" clip-path="url(#pb95178a033)" style="fill: none; stroke: #cccccc; stroke-linecap: round"/>
     </g>
     <g id="text_6">
      <text style="font-size: 9px; font-family: 'Arial', 'DejaVu Sans', 'Liberation Sans', 'Bitstream Vera Sans', sans-serif; text-anchor: middle; fill: #262626" x="331.34446" y="315.856719" transform="rotate(-0 331.34446 315.856719)">2.5</text>
     </g>
    </g>
    <g id="xtick_7">
     <g id="line2d_7">
      <path d="M 382.071733 299.518125 
L 382.071733 22.318125 
" clip-path="url(#pb95178a033)" style="fill: none; stroke: #cccccc; stroke-linecap: round"/>
     </g>
     <g id="text_7">
      <text style="font-size: 9px; font-family: 'Arial', 'DejaVu Sans', 'Liberation Sans', 'Bitstream Vera Sans', sans-serif; text-anchor: middle; fill: #262626" x="382.071733" y="315.856719" transform="rotate(-0 382.071733 315.856719)">5.0</text>
     </g>
    </g>
    <g id="xtick_8">
     <g id="line2d_8">
      <path d="M 432.799006 299.518125 
L 432.799006 22.318125 
" clip-path="url(#pb95178a033)" style="fill: none; stroke: #cccccc; stroke-linecap: round"/>
     </g>
     <g id="text_8">
      <text style="font-size: 9px; font-family: 'Arial', 'DejaVu Sans', 'Liberation Sans', 'Bitstream Vera Sans', sans-serif; text-anchor: middle; fill: #262626" x="432.799006" y="315.856719" transform="rotate(-0 432.799006 315.856719)">7.5</text>
     </g>
    </g>
    <g id="xtick_9">
     <g id="line2d_9">
      <path d="M 483.526278 299.518125 
L 483.526278 22.318125 
" clip-path="url(#pb95178a033)" style="fill: none; stroke: #cccccc; stroke-linecap: round"/>
     </g>
     <g id="text_9">
      <text style="font-size: 9px; font-family: 'Arial', 'DejaVu Sans', 'Liberation Sans', 'Bitstream Vera Sans', sans-serif; text-anchor: middle; fill: #262626" x="483.526278" y="315.856719" transform="rotate(-0 483.526278 315.856719)">10.0</text>
     </g>
    </g>
    <g id="text_10">
     <text style="font-size: 11px; font-family: 'Arial', 'DejaVu Sans', 'Liberation Sans', 'Bitstream Vera Sans', sans-serif; text-anchor: middle; fill: #262626" x="280.617188" y="330.086719" transform="rotate(-0 280.617188 330.086719)">Position relative to failure event</text>
    </g>
   </g>
   <g id="matplotlib.axis_2">
    <g id="ytick_1">
     <g id="line2d_10">
      <path d="M 57.417188 273.612323 
L 503.817187 273.612323 
" clip-path="url(#pb95178a033)" style="fill: none; stroke: #cccccc; stroke-linecap: round"/>
     </g>
     <g id="text_11">
      <text style="font-size: 9px; font-family: 'Arial', 'DejaVu Sans', 'Liberation Sans', 'Bitstream Vera Sans', sans-serif; text-anchor: end; fill: #262626" x="47.917188" y="277.03162" transform="rotate(-0 47.917188 277.03162)">3.164</text>
     </g>
    </g>
    <g id="ytick_2">
     <g id="line2d_11">
      <path d="M 57.417188 218.982119 
L 503.817187 218.982119 
" clip-path="url(#pb95178a033)" style="fill: none; stroke: #cccccc; stroke-linecap: round"/>
     </g>
     <g id="text_12">
      <text style="font-size: 9px; font-family: 'Arial', 'DejaVu Sans', 'Liberation Sans', 'Bitstream Vera Sans', sans-serif; text-anchor: end; fill: #262626" x="47.917188" y="222.401416" transform="rotate(-0 47.917188 222.401416)">3.166</text>
     </g>
    </g>
    <g id="ytick_3">
     <g id="line2d_12">
      <path d="M 57.417188 164.351915 
L 503.817187 164.351915 
" clip-path="url(#pb95178a033)" style="fill: none; stroke: #cccccc; stroke-linecap: round"/>
     </g>
     <g id="text_13">
      <text style="font-size: 9px; font-family: 'Arial', 'DejaVu Sans', 'Liberation Sans', 'Bitstream Vera Sans', sans-serif; text-anchor: end; fill: #262626" x="47.917188" y="167.771212" transform="rotate(-0 47.917188 167.771212)">3.168</text>
     </g>
    </g>
    <g id="ytick_4">
     <g id="line2d_13">
      <path d="M 57.417188 109.721711 
L 503.817187 109.721711 
" clip-path="url(#pb95178a033)" style="fill: none; stroke: #cccccc; stroke-linecap: round"/>
     </g>
     <g id="text_14">
      <text style="font-size: 9px; font-family: 'Arial', 'DejaVu Sans', 'Liberation Sans', 'Bitstream Vera Sans', sans-serif; text-anchor: end; fill: #262626" x="47.917188" y="113.141008" transform="rotate(-0 47.917188 113.141008)">3.170</text>
     </g>
    </g>
    <g id="ytick_5">
     <g id="line2d_14">
      <path d="M 57.417188 55.091507 
L 503.817187 55.091507 
" clip-path="url(#pb95178a033)" style="fill: none; stroke: #cccccc; stroke-linecap: round"/>
     </g>
     <g id="text_15">
      <text style="font-size: 9px; font-family: 'Arial', 'DejaVu Sans', 'Liberation Sans', 'Bitstream Vera Sans', sans-serif; text-anchor: end; fill: #262626" x="47.917188" y="58.510804" transform="rotate(-0 47.917188 58.510804)">3.172</text>
     </g>
    </g>
    <g id="text_16">
     <text style="font-size: 11px; font-family: 'Arial', 'DejaVu Sans', 'Liberation Sans', 'Bitstream Vera Sans', sans-serif; text-anchor: middle; fill: #262626" x="15.558281" y="160.918125" transform="rotate(-90 15.558281 160.918125)">qkt.layer_0.spectral_entropy</text>
    </g>
   </g>
   <g id="FillBetweenPolyCollection_1">
    <defs>
     <path id="mb086d90ff7" d="M 77.708097 -274.574137 
L 77.708097 -269.89875 
L 97.999006 -276.583024 
L 118.289915 -300.277396 
L 138.580824 -299.03625 
L 158.871733 -260.717951 
L 179.162642 -235.656175 
L 199.453551 -216.381667 
L 219.74446 -202.699864 
L 240.035369 -235.19442 
L 260.326278 -194.1878 
L 280.617188 -173.743931 
L 300.908097 -171.569307 
L 321.199006 -169.623312 
L 341.489915 -177.594845 
L 361.780824 -175.697978 
L 382.071733 -171.836713 
L 402.362642 -154.596361 
L 422.653551 -157.892846 
L 442.94446 -161.71372 
L 463.235369 -123.552955 
L 483.526278 -126.217154 
L 483.526278 -130.496654 
L 483.526278 -130.496654 
L 463.235369 -128.03674 
L 442.94446 -166.095427 
L 422.653551 -162.173551 
L 402.362642 -158.941279 
L 382.071733 -176.063021 
L 361.780824 -179.835382 
L 341.489915 -181.786029 
L 321.199006 -173.868515 
L 300.908097 -175.579866 
L 280.617188 -177.682552 
L 260.326278 -198.138771 
L 240.035369 -239.045722 
L 219.74446 -206.424136 
L 199.453551 -220.322705 
L 179.162642 -239.77933 
L 158.871733 -264.661867 
L 138.580824 -303.309157 
L 118.289915 -304.65625 
L 97.999006 -280.835049 
L 77.708097 -274.574137 
z
" style="stroke: #d55e00; stroke-opacity: 0.2"/>
    </defs>
    <g clip-path="url(#pb95178a033)">
     <use xlink:href="#mb086d90ff7" x="0" y="339.574375" style="fill: #d55e00; fill-opacity: 0.2; stroke: #d55e00; stroke-opacity: 0.2"/>
    </g>
   </g>
   <g id="FillBetweenPolyCollection_2">
    <defs>
     <path id="m3a967d9673" d="M 77.708097 -137.207733 
L 77.708097 -133.380708 
L 97.999006 -105.400571 
L 118.289915 -99.669761 
L 138.580824 -106.214162 
L 158.871733 -113.574541 
L 179.162642 -90.793243 
L 199.453551 -66.136903 
L 219.74446 -52.65625 
L 240.035369 -81.528127 
L 260.326278 -85.247779 
L 280.617188 -102.184655 
L 300.908097 -112.587367 
L 321.199006 -120.956235 
L 341.489915 -170.947743 
L 361.780824 -172.127898 
L 382.071733 -147.357835 
L 402.362642 -192.624184 
L 422.653551 -178.265273 
L 442.94446 -181.788727 
L 463.235369 -193.367633 
L 483.526278 -201.949299 
L 483.526278 -206.096213 
L 483.526278 -206.096213 
L 463.235369 -197.340225 
L 442.94446 -185.518061 
L 422.653551 -181.979772 
L 402.362642 -196.351386 
L 382.071733 -151.074441 
L 361.780824 -175.897966 
L 341.489915 -174.69509 
L 321.199006 -124.458289 
L 300.908097 -116.143279 
L 280.617188 -106.215346 
L 260.326278 -89.204654 
L 240.035369 -85.549347 
L 219.74446 -56.624008 
L 199.453551 -69.815739 
L 179.162642 -94.632744 
L 158.871733 -117.274852 
L 138.580824 -109.992514 
L 118.289915 -103.507659 
L 97.999006 -109.22424 
L 77.708097 -137.207733 
z
" style="stroke: #0173b2; stroke-opacity: 0.2"/>
    </defs>
    <g clip-path="url(#pb95178a033)">
     <use xlink:href="#m3a967d9673" x="0" y="339.574375" style="fill: #0173b2; fill-opacity: 0.2; stroke: #0173b2; stroke-opacity: 0.2"/>
    </g>
   </g>
   <g id="line2d_15">
    <path d="M 77.708097 67.337932 
L 97.999006 60.865338 
L 118.289915 37.107552 
L 138.580824 38.401671 
L 158.871733 76.884466 
L 179.162642 101.856622 
L 199.453551 121.222189 
L 219.74446 135.012375 
L 240.035369 102.454304 
L 260.326278 143.411089 
L 280.617188 163.861133 
L 300.908097 165.999789 
L 321.199006 167.828461 
L 341.489915 159.883938 
L 361.780824 161.807695 
L 382.071733 165.624508 
L 402.362642 182.805555 
L 422.653551 179.541177 
L 442.94446 175.669801 
L 463.235369 213.779528 
L 483.526278 211.217471 
" clip-path="url(#pb95178a033)" style="fill: none; stroke: #d55e00; stroke-width: 1.5; stroke-linecap: round"/>
   </g>
   <g id="line2d_16">
    <path d="M 77.708097 204.280155 
L 97.999006 232.26197 
L 118.289915 237.985665 
L 138.580824 231.471037 
L 158.871733 224.149678 
L 179.162642 246.861382 
L 199.453551 271.598054 
L 219.74446 284.934246 
L 240.035369 256.035638 
L 260.326278 252.348158 
L 280.617188 235.374375 
L 300.908097 225.209052 
L 321.199006 216.867113 
L 341.489915 166.752958 
L 361.780824 165.561443 
L 382.071733 190.358237 
L 402.362642 145.08659 
L 422.653551 159.451853 
L 442.94446 155.920981 
L 463.235369 144.220446 
L 483.526278 135.551619 
" clip-path="url(#pb95178a033)" style="fill: none; stroke: #0173b2; stroke-width: 1.5; stroke-linecap: round"/>
   </g>
   <g id="line2d_17">
    <path d="M 280.617188 299.518125 
L 280.617188 22.318125 
" clip-path="url(#pb95178a033)" style="fill: none; stroke-dasharray: 5.55,2.4; stroke-dashoffset: 0; stroke: #808080; stroke-opacity: 0.7; stroke-width: 1.5"/>
   </g>
   <g id="patch_3">
    <path d="M 57.417188 299.518125 
L 57.417188 22.318125 
" style="fill: none; stroke: #cccccc; stroke-width: 1.25; stroke-linejoin: miter; stroke-linecap: square"/>
   </g>
   <g id="patch_4">
    <path d="M 503.817187 299.518125 
L 503.817187 22.318125 
" style="fill: none; stroke: #cccccc; stroke-width: 1.25; stroke-linejoin: miter; stroke-linecap: square"/>
   </g>
   <g id="patch_5">
    <path d="M 57.417188 299.518125 
L 503.817187 299.518125 
" style="fill: none; stroke: #cccccc; stroke-width: 1.25; stroke-linejoin: miter; stroke-linecap: square"/>
   </g>
   <g id="patch_6">
    <path d="M 57.417188 22.318125 
L 503.817187 22.318125 
" style="fill: none; stroke: #cccccc; stroke-width: 1.25; stroke-linejoin: miter; stroke-linecap: square"/>
   </g>
   <g id="text_17">
    <text style="font-size: 12px; font-family: 'Arial', 'DejaVu Sans', 'Liberation Sans', 'Bitstream Vera Sans', sans-serif; text-anchor: middle; fill: #262626" x="280.617188" y="16.318125" transform="rotate(-0 280.617188 16.318125)">Event-aligned: qkt.layer_0.spectral_entropy</text>
   </g>
   <g id="legend_1">
    <g id="patch_7">
     <path d="M 401.409688 63.945625 
L 498.217187 63.945625 
Q 499.817187 63.945625 499.817187 62.345625 
L 499.817187 27.918125 
Q 499.817187 26.318125 498.217187 26.318125 
L 401.409688 26.318125 
Q 399.809687 26.318125 399.809687 27.918125 
L 399.809687 62.345625 
Q 399.809687 63.945625 401.409688 63.945625 
z
" style="fill: #ffffff; opacity: 0.8; stroke: #cccccc; stroke-linejoin: miter"/>
    </g>
    <g id="line2d_18">
     <path d="M 403.009687 32.796875 
L 411.009687 32.796875 
L 419.009687 32.796875 
" style="fill: none; stroke: #d55e00; stroke-width: 1.5; stroke-linecap: round"/>
    </g>
    <g id="text_18">
     <text style="font-size: 8px; font-family: 'Arial', 'DejaVu Sans', 'Liberation Sans', 'Bitstream Vera Sans', sans-serif; text-anchor: start; fill: #262626" x="425.409687" y="35.596875" transform="rotate(-0 425.409687 35.596875)">Violation</text>
    </g>
    <g id="line2d_19">
     <path d="M 403.009687 44.539375 
L 411.009687 44.539375 
L 419.009687 44.539375 
" style="fill: none; stroke: #0173b2; stroke-width: 1.5; stroke-linecap: round"/>
    </g>
    <g id="text_19">
     <text style="font-size: 8px; font-family: 'Arial', 'DejaVu Sans', 'Liberation Sans', 'Bitstream Vera Sans', sans-serif; text-anchor: start; fill: #262626" x="425.409687" y="47.339375" transform="rotate(-0 425.409687 47.339375)">Control (baseline)</text>
    </g>
    <g id="line2d_20">
     <path d="M 403.009687 56.281875 
L 411.009687 56.281875 
L 419.009687 56.281875 
" style="fill: none; stroke-dasharray: 5.55,2.4; stroke-dashoffset: 0; stroke: #808080; stroke-opacity: 0.7; stroke-width: 1.5"/>
    </g>
    <g id="text_20">
     <text style="font-size: 8px; font-family: 'Arial', 'DejaVu Sans', 'Liberation Sans', 'Bitstream Vera Sans', sans-serif; text-anchor: start; fill: #262626" x="425.409687" y="59.081875" transform="rotate(-0 425.409687 59.081875)">Failure event</text>
    </g>
   </g>
  </g>
 </g>
 <defs>
  <clipPath id="pb95178a033">
   <rect x="57.417188" y="22.318125" width="446.4" height="277.2"/>
  </clipPath>
 </defs>
</svg>
