<?xml version="1.0" encoding="utf-8" standalone="no"?>
<!DOCTYPE svg PUBLIC "-//W3C//DTD SVG 1.1//EN"
  "http://www.w3.org/Graphics/SVG/1.1/DTD/svg11.dtd">
<svg xmlns:xlink="http://www.w3.org/1999/xlink" width="505.290937pt" height="339.574375pt" viewBox="0 0 505.290937 339.574375" xmlns="http://www.w3.org/2000/svg" version="1.1">
 <metadata>
  <rdf:RDF xmlns:dc="http://purl.org/dc/elements/1.1/" xmlns:cc="http://creativecommons.org/ns#" xmlns:rdf="http://www.w3.org/1999/02/22-rdf-syntax-ns#">
   <cc:Work>
    <dc:type rdf:resource="http://purl.org/dc/dcmitype/StillImage"/>
    <dc:date>2026-03-21T18:52:29.743037</dc:date>
    <dc:format>image/svg+xml</dc:format>
    <dc:creator>
     <cc:Agent>
      <dc:title>Matplotlib v3.10.8, https://matplotlib.org/</dc:title>
     </cc:Agent>
    </dc:creator>
   </cc:Work>
  </rdf:RDF>
 </metadata>
 <defs>
  <style type="text/css">*{stroke-linejoin: round; stroke-linecap: butt}</style>
 </defs>
 <g id="figure_1">
  <g id="patch_1">
   <path d="M 0 339.574375 
L 505.290937 339.574375 
L 505.290937 0 
L 0 0 
z
" style="fill: #ffffff"/>
  </g>
  <g id="axes_1">
   <g id="patch_2">
    <path d="M 51.690938 299.518125 
L 498.090937 299.518125 
L 498.090937 22.318125 
L 51.690938 22.318125 
z
" style="fill: #ffffff"/>
   </g>
   <g id="matplotlib.axis_1">
    <g id="xtick_1">
     <g id="line2d_1">
      <path d="M 71.981847 299.518125 
L 71.981847 22.318125 
" clip-path="url(#p36fa358416)" style="fill: none; stroke: #cccccc; stroke-linecap: round"/>
     </g>
     <g id="text_1">
      <text style="font-size: 9px; font-family: 'Arial', 'DejaVu Sans', 'Liberation Sans', 'Bitstream Vera Sans', sans-serif; text-anchor: middle; fill: #262626" x="71.981847" y="315.856719" transform="rotate(-0 71.981847 315.856719)">−10.0</text>
     </g>
    </g>
    <g id="xtick_2">
     <g id="line2d_2">
      <path d="M 122.709119 299.518125 
L 122.709119 22.318125 
" clip-path="url(#p36fa358416)" style="fill: none; stroke: #cccccc; stroke-linecap: round"/>
     </g>
     <g id="text_2">
      <text style="font-size: 9px; font-family: 'Arial', 'DejaVu Sans', 'Liberation Sans', 'Bitstream Vera Sans', sans-serif; text-anchor: middle; fill: #262626" x="122.709119" y="315.856719" transform="rotate(-0 122.709119 315.856719)">−7.5</text>
     </g>
    </g>
    <g id="xtick_3">
     <g id="line2d_3">
      <path d="M 173.436392 299.518125 
L 173.436392 22.318125 
" clip-path="url(#p36fa358416)" style="fill: none; stroke: #cccccc; stroke-linecap: round"/>
     </g>
     <g id="text_3">
      <text style="font-size: 9px; font-family: 'Arial', 'DejaVu Sans', 'Liberation Sans', 'Bitstream Vera Sans', sans-serif; text-anchor: middle; fill: #262626" x="173.436392" y="315.856719" transform="rotate(-0 173.436392 315.856719)">−5.0</text>
     </g>
    </g>
    <g id="xtick_4">
     <g id="line2d_4">
      <path d="M 224.163665 299.518125 
L 224.163665 22.318125 
" clip-path="url(#p36fa358416)" style="fill: none; stroke: #cccccc; stroke-linecap: round"/>
     </g>
     <g id="text_4">
      <text style="font-size: 9px; font-family: 'Arial', 'DejaVu Sans', 'Liberation Sans', 'Bitstream Vera Sans', sans-serif; text-anchor: middle; fill: #262626" x="224.163665" y="315.856719" transform="rotate(-0 224.163665 315.856719)">−2.5</text>
     </g>
    </g>
    <g id="xtick_5">
     <g id="line2d_5">
      <path d="M 274.890938 299.518125 
L 274.890938 22.318125 
" clip-path="url(#p36fa358416)" style="fill: none; stroke: #cccccc; stroke-linecap: round"/>
     </g>
     <g id="text_5">
      <text style="font-size: 9px; font-family: 'Arial', 'DejaVu Sans', 'Liberation Sans', 'Bitstream Vera Sans', sans-serif; text-anchor: middle; fill: #262626" x="274.890938" y="315.856719" transform="rotate(-0 274.890938 315.856719)">0.0</text>
     </g>
    </g>
    <g id="xtick_6">
     <g id="line2d_6">
      <path d="M 325.61821 299.518125 
L 325.61821 22.318125 
" clip-path="url(#p36fa358416)" style="fill: none; stroke: #cccccc; stroke-linecap: round"/>
     </g>
     <g id="text_6">
      <text style="font-size: 9px; font-family: 'Arial', 'DejaVu Sans', 'Liberation Sans', 'Bitstream Vera Sans', sans-serif; text-anchor: middle; fill: #262626" x="325.61821" y="315.856719" transform="rotate(-0 325.61821 315.856719)">2.5</text>
     </g>
    </g>
    <g id="xtick_7">
     <g id="line2d_7">
      <path d="M 376.345483 299.518125 
L 376.345483 22.318125 
" clip-path="url(#p36fa358416)" style="fill: none; stroke: #cccccc; stroke-linecap: round"/>
     </g>
     <g id="text_7">
      <text style="font-size: 9px; font-family: 'Arial', 'DejaVu Sans', 'Liberation Sans', 'Bitstream Vera Sans', sans-serif; text-anchor: middle; fill: #262626" x="376.345483" y="315.856719" transform="rotate(-0 376.345483 315.856719)">5.0</text>
     </g>
    </g>
    <g id="xtick_8">
     <g id="line2d_8">
      <path d="M 427.072756 299.518125 
L 427.072756 22.318125 
" clip-path="url(#p36fa358416)" style="fill: none; stroke: #cccccc; stroke-linecap: round"/>
     </g>
     <g id="text_8">
      <text style="font-size: 9px; font-family: 'Arial', 'DejaVu Sans', 'Liberation Sans', 'Bitstream Vera Sans', sans-serif; text-anchor: middle; fill: #262626" x="427.072756" y="315.856719" transform="rotate(-0 427.072756 315.856719)">7.5</text>
     </g>
    </g>
    <g id="xtick_9">
     <g id="line2d_9">
      <path d="M 477.800028 299.518125 
L 477.800028 22.318125 
" clip-path="url(#p36fa358416)" style="fill: none; stroke: #cccccc; stroke-linecap: round"/>
     </g>
     <g id="text_9">
      <text style="font-size: 9px; font-family: 'Arial', 'DejaVu Sans', 'Liberation Sans', 'Bitstream Vera Sans', sans-serif; text-anchor: middle; fill: #262626" x="477.800028" y="315.856719" transform="rotate(-0 477.800028 315.856719)">10.0</text>
     </g>
    </g>
    <g id="text_10">
     <text style="font-size: 11px; font-family: 'Arial', 'DejaVu Sans', 'Liberation Sans', 'Bitstream Vera Sans', sans-serif; text-anchor: middle; fill: #262626" x="274.890938" y="330.086719" transform="rotate(-0 274.890938 330.086719)">Position relative to failure event</text>
    </g>
   </g>
   <g id="matplotlib.axis_2">
    <g id="ytick_1">
     <g id="line2d_10">
      <path d="M 51.690938 279.348189 
L 498.090937 279.348189 
" clip-path="url(#p36fa358416)" style="fill: none; stroke: #cccccc; stroke-linecap: round"/>
     </g>
     <g id="text_11">
      <text style="font-size: 9px; font-family: 'Arial', 'DejaVu Sans', 'Liberation Sans', 'Bitstream Vera Sans', sans-serif; text-anchor: end; fill: #262626" x="42.190938" y="282.767486" transform="rotate(-0 42.190938 282.767486)">0.62</text>
     </g>
    </g>
    <g id="ytick_2">
     <g id="line2d_11">
      <path d="M 51.690938 241.35629 
L 498.090937 241.35629 
" clip-path="url(#p36fa358416)" style="fill: none; stroke: #cccccc; stroke-linecap: round"/>
     </g>
     <g id="text_12">
      <text style="font-size: 9px; font-family: 'Arial', 'DejaVu Sans', 'Liberation Sans', 'Bitstream Vera Sans', sans-serif; text-anchor: end; fill: #262626" x="42.190938" y="244.775587" transform="rotate(-0 42.190938 244.775587)">0.64</text>
     </g>
    </g>
    <g id="ytick_3">
     <g id="line2d_12">
      <path d="M 51.690938 203.364391 
L 498.090937 203.364391 
" clip-path="url(#p36fa358416)" style="fill: none; stroke: #cccccc; stroke-linecap: round"/>
     </g>
     <g id="text_13">
      <text style="font-size: 9px; font-family: 'Arial', 'DejaVu Sans', 'Liberation Sans', 'Bitstream Vera Sans', sans-serif; text-anchor: end; fill: #262626" x="42.190938" y="206.783688" transform="rotate(-0 42.190938 206.783688)">0.66</text>
     </g>
    </g>
    <g id="ytick_4">
     <g id="line2d_13">
      <path d="M 51.690938 165.372492 
L 498.090937 165.372492 
" clip-path="url(#p36fa358416)" style="fill: none; stroke: #cccccc; stroke-linecap: round"/>
     </g>
     <g id="text_14">
      <text style="font-size: 9px; font-family: 'Arial', 'DejaVu Sans', 'Liberation Sans', 'Bitstream Vera Sans', sans-serif; text-anchor: end; fill: #262626" x="42.190938" y="168.791789" transform="rotate(-0 42.190938 168.791789)">0.68</text>
     </g>
    </g>
    <g id="ytick_5">
     <g id="line2d_14">
      <path d="M 51.690938 127.380593 
L 498.090937 127.380593 
" clip-path="url(#p36fa358416)" style="fill: none; stroke: #cccccc; stroke-linecap: round"/>
     </g>
     <g id="text_15">
      <text style="font-size: 9px; font-family: 'Arial', 'DejaVu Sans', 'Liberation Sans', 'Bitstream Vera Sans', sans-serif; text-anchor: end; fill: #262626" x="42.190938" y="130.79989" transform="rotate(-0 42.190938 130.79989)">0.70</text>
     </g>
    </g>
    <g id="ytick_6">
     <g id="line2d_15">
      <path d="M 51.690938 89.388694 
L 498.090937 89.388694 
" clip-path="url(#p36fa358416)" style="fill: none; stroke: #cccccc; stroke-linecap: round"/>
     </g>
     <g id="text_16">
      <text style="font-size: 9px; font-family: 'Arial', 'DejaVu Sans', 'Liberation Sans', 'Bitstream Vera Sans', sans-serif; text-anchor: end; fill: #262626" x="42.190938" y="92.807991" transform="rotate(-0 42.190938 92.807991)">0.72</text>
     </g>
    </g>
    <g id="ytick_7">
     <g id="line2d_16">
      <path d="M 51.690938 51.396795 
L 498.090937 51.396795 
" clip-path="url(#p36fa358416)" style="fill: none; stroke: #cccccc; stroke-linecap: round"/>
     </g>
     <g id="text_17">
      <text style="font-size: 9px; font-family: 'Arial', 'DejaVu Sans', 'Liberation Sans', 'Bitstream Vera Sans', sans-serif; text-anchor: end; fill: #262626" x="42.190938" y="54.816092" transform="rotate(-0 42.190938 54.816092)">0.74</text>
     </g>
    </g>
    <g id="text_18">
     <text style="font-size: 11px; font-family: 'Arial', 'DejaVu Sans', 'Liberation Sans', 'Bitstream Vera Sans', sans-serif; text-anchor: middle; fill: #262626" x="15.558281" y="160.918125" transform="rotate(-90 15.558281 160.918125)">avwo.layer_0.grassmannian_distance</text>
    </g>
   </g>
   <g id="FillBetweenPolyCollection_1">
    <defs>
     <path id="m2a1ec5c233" d="M 71.981847 -98.246583 
L 71.981847 -94.288191 
L 92.272756 -84.336447 
L 112.563665 -115.230247 
L 132.854574 -142.523154 
L 153.145483 -148.754659 
L 173.436392 -78.066752 
L 193.727301 -146.267388 
L 214.01821 -116.423625 
L 234.309119 -52.65625 
L 254.600028 -106.761774 
L 274.890938 -98.707188 
L 295.181847 -116.952944 
L 315.472756 -108.971543 
L 335.763665 -116.969108 
L 356.054574 -84.717765 
L 376.345483 -60.04252 
L 396.636392 -108.776358 
L 416.927301 -105.680608 
L 437.21821 -60.549889 
L 457.509119 -53.303569 
L 477.800028 -98.001287 
L 477.800028 -103.3906 
L 477.800028 -103.3906 
L 457.509119 -56.347972 
L 437.21821 -64.141229 
L 416.927301 -109.712909 
L 396.636392 -113.728792 
L 376.345483 -64.030408 
L 356.054574 -88.322076 
L 335.763665 -121.577012 
L 315.472756 -113.657984 
L 295.181847 -120.914063 
L 274.890938 -102.650845 
L 254.600028 -111.055455 
L 234.309119 -56.442781 
L 214.01821 -120.680852 
L 193.727301 -151.573121 
L 173.436392 -81.484535 
L 153.145483 -153.331825 
L 132.854574 -146.816591 
L 112.563665 -118.941853 
L 92.272756 -87.908799 
L 71.981847 -98.246583 
z
" style="stroke: #d55e00; stroke-opacity: 0.2"/>
    </defs>
    <g clip-path="url(#p36fa358416)">
     <use xlink:href="#m2a1ec5c233" x="0" y="339.574375" style="fill: #d55e00; fill-opacity: 0.2; stroke: #d55e00; stroke-opacity: 0.2"/>
    </g>
   </g>
   <g id="FillBetweenPolyCollection_2">
    <defs>
     <path id="mc7fbae4a29" d="M 71.981847 -133.152549 
L 71.981847 -128.123795 
L 92.272756 -80.858658 
L 112.563665 -140.42913 
L 132.854574 -70.526551 
L 153.145483 -298.448786 
L 173.436392 -94.109436 
L 193.727301 -98.642201 
L 214.01821 -248.038983 
L 234.309119 -222.831674 
L 254.600028 -226.562732 
L 274.890938 -105.432561 
L 295.181847 -176.980643 
L 315.472756 -144.21983 
L 335.763665 -127.932611 
L 356.054574 -117.916236 
L 376.345483 -187.770613 
L 396.636392 -228.824769 
L 416.927301 -267.145383 
L 437.21821 -69.380944 
L 457.509119 -199.231777 
L 477.800028 -202.154005 
L 477.800028 -206.970988 
L 477.800028 -206.970988 
L 457.509119 -204.560236 
L 437.21821 -72.35239 
L 416.927301 -272.842173 
L 396.636392 -233.569662 
L 376.345483 -192.179448 
L 356.054574 -121.356984 
L 335.763665 -132.313867 
L 315.472756 -147.713342 
L 295.181847 -180.785488 
L 274.890938 -108.166375 
L 254.600028 -231.508507 
L 234.309119 -228.795649 
L 214.01821 -254.23215 
L 193.727301 -102.094428 
L 173.436392 -97.741601 
L 153.145483 -304.65625 
L 132.854574 -74.047574 
L 112.563665 -145.082893 
L 92.272756 -84.139673 
L 71.981847 -133.152549 
z
" style="stroke: #0173b2; stroke-opacity: 0.2"/>
    </defs>
    <g clip-path="url(#p36fa358416)">
     <use xlink:href="#mc7fbae4a29" x="0" y="339.574375" style="fill: #0173b2; fill-opacity: 0.2; stroke: #0173b2; stroke-opacity: 0.2"/>
    </g>
   </g>
   <g id="line2d_17">
    <path d="M 71.981847 243.306988 
L 92.272756 253.451752 
L 112.563665 222.488325 
L 132.854574 194.904502 
L 153.145483 188.531133 
L 173.436392 259.798732 
L 193.727301 190.654121 
L 214.01821 221.022137 
L 234.309119 285.024859 
L 254.600028 230.665761 
L 274.890938 238.895359 
L 295.181847 220.640871 
L 315.472756 228.259611 
L 335.763665 220.301315 
L 356.054574 253.054454 
L 376.345483 277.537911 
L 396.636392 228.3218 
L 416.927301 231.877617 
L 437.21821 277.228816 
L 457.509119 284.748604 
L 477.800028 238.878431 
" clip-path="url(#p36fa358416)" style="fill: none; stroke: #d55e00; stroke-width: 1.5; stroke-linecap: round"/>
   </g>
   <g id="line2d_18">
    <path d="M 71.981847 208.936203 
L 92.272756 257.075209 
L 112.563665 196.818364 
L 132.854574 267.287312 
L 153.145483 38.021857 
L 173.436392 243.648856 
L 193.727301 239.20606 
L 214.01821 88.438809 
L 234.309119 113.760714 
L 254.600028 110.538755 
L 274.890938 232.774907 
L 295.181847 160.69131 
L 315.472756 193.607789 
L 335.763665 209.451136 
L 356.054574 219.937765 
L 376.345483 149.599345 
L 396.636392 108.37716 
L 416.927301 69.580597 
L 437.21821 268.707708 
L 457.509119 137.678369 
L 477.800028 135.011879 
" clip-path="url(#p36fa358416)" style="fill: none; stroke: #0173b2; stroke-width: 1.5; stroke-linecap: round"/>
   </g>
   <g id="line2d_19">
    <path d="M 274.890938 299.518125 
L 274.890938 22.318125 
" clip-path="url(#p36fa358416)" style="fill: none; stroke-dasharray: 5.55,2.4; stroke-dashoffset: 0; stroke: #808080; stroke-opacity: 0.7; stroke-width: 1.5"/>
   </g>
   <g id="patch_3">
    <path d="M 51.690938 299.518125 
L 51.690938 22.318125 
" style="fill: none; stroke: #cccccc; stroke-width: 1.25; stroke-linejoin: miter; stroke-linecap: square"/>
   </g>
   <g id="patch_4">
    <path d="M 498.090937 299.518125 
L 498.090937 22.318125 
" style="fill: none; stroke: #cccccc; stroke-width: 1.25; stroke-linejoin: miter; stroke-linecap: square"/>
   </g>
   <g id="patch_5">
    <path d="M 51.690938 299.518125 
L 498.090937 299.518125 
" style="fill: none; stroke: #cccccc; stroke-width: 1.25; stroke-linejoin: miter; stroke-linecap: square"/>
   </g>
   <g id="patch_6">
    <path d="M 51.690938 22.318125 
L 498.090937 22.318125 
" style="fill: none; stroke: #cccccc; stroke-width: 1.25; stroke-linejoin: miter; stroke-linecap: square"/>
   </g>
   <g id="text_19">
    <text style="font-size: 12px; font-family: 'Arial', 'DejaVu Sans', 'Liberation Sans', 'Bitstream Vera Sans', sans-serif; text-anchor: middle; fill: #262626" x="274.890938" y="16.318125" transform="rotate(-0 274.890938 16.318125)">Event-aligned: avwo.layer_0.grassmannian_distance</text>
   </g>
   <g id="legend_1">
    <g id="patch_7">
     <path d="M 395.683438 63.945625 
L 492.490937 63.945625 
Q 494.090937 63.945625 494.090937 62.345625 
L 494.090937 27.918125 
Q 494.090937 26.318125 492.490937 26.318125 
L 395.683438 26.318125 
Q 394.083438 26.318125 394.083438 27.918125 
L 394.083438 62.345625 
Q 394.083438 63.945625 395.683438 63.945625 
z
" style="fill: #ffffff; opacity: 0.8; stroke: #cccccc; stroke-linejoin: miter"/>
    </g>
    <g id="line2d_20">
     <path d="M 397.283437 32.796875 
L 405.283437 32.796875 
L 413.283437 32.796875 
" style="fill: none; stroke: #d55e00; stroke-width: 1.5; stroke-linecap: round"/>
    </g>
    <g id="text_20">
     <text style="font-size: 8px; font-family: 'Arial', 'DejaVu Sans', 'Liberation Sans', 'Bitstream Vera Sans', sans-serif; text-anchor: start; fill: #262626" x="419.683437" y="35.596875" transform="rotate(-0 419.683437 35.596875)">Violation</text>
    </g>
    <g id="line2d_21">
     <path d="M 397.283437 44.539375 
L 405.283437 44.539375 
L 413.283437 44.539375 
" style="fill: none; stroke: #0173b2; stroke-width: 1.5; stroke-linecap: round"/>
    </g>
    <g id="text_21">
     <text style="font-size: 8px; font-family: 'Arial', 'DejaVu Sans', 'Liberation Sans', 'Bitstream Vera Sans', sans-serif; text-anchor: start; fill: #262626" x="419.683437" y="47.339375" transform="rotate(-0 419.683437 47.339375)">Control (baseline)</text>
    </g>
    <g id="line2d_22">
     <path d="M 397.283437 56.281875 
L 405.283437 56.281875 
L 413.283437 56.281875 
" style="fill: none; stroke-dasharray: 5.55,2.4; stroke-dashoffset: 0; stroke: #808080; stroke-opacity: 0.7; stroke-width: 1.5"/>
    </g>
    <g id="text_22">
     <text style="font-size: 8px; font-family: 'Arial', 'DejaVu Sans', 'Liberation Sans', 'Bitstream Vera Sans', sans-serif; text-anchor: start; fill: #262626" x="419.683437" y="59.081875" transform="rotate(-0 419.683437 59.081875)">Failure event</text>
    </g>
   </g>
  </g>
 </g>
 <defs>
  <clipPath id="p36fa358416">
   <rect x="51.690938" y="22.318125" width="446.4" height="277.2"/>
  </clipPath>
 </defs>
</svg>
