<?xml version="1.0" encoding="utf-8" standalone="no"?>
<!DOCTYPE svg PUBLIC "-//W3C//DTD SVG 1.1//EN"
  "http://www.w3.org/Graphics/SVG/1.1/DTD/svg11.dtd">
<svg xmlns:xlink="http://www.w3.org/1999/xlink" width="613.724687pt" height="284.134375pt" viewBox="0 0 613.724687 284.134375" xmlns="http://www.w3.org/2000/svg" version="1.1">
 <metadata>
  <rdf:RDF xmlns:dc="http://purl.org/dc/elements/1.1/" xmlns:cc="http://creativecommons.org/ns#" xmlns:rdf="http://www.w3.org/1999/02/22-rdf-syntax-ns#">
   <cc:Work>
    <dc:type rdf:resource="http://purl.org/dc/dcmitype/StillImage"/>
    <dc:date>2026-03-21T18:53:09.360309</dc:date>
    <dc:format>image/svg+xml</dc:format>
    <dc:creator>
     <cc:Agent>
      <dc:title>Matplotlib v3.10.8, https://matplotlib.org/</dc:title>
     </cc:Agent>
    </dc:creator>
   </cc:Work>
  </rdf:RDF>
 </metadata>
 <defs>
  <style type="text/css">*{stroke-linejoin: round; stroke-linecap: butt}</style>
 </defs>
 <g id="figure_1">
  <g id="patch_1">
   <path d="M 0 284.134375 
L 613.724687 284.134375 
L 613.724687 0 
L 0 0 
z
" style="fill: #ffffff"/>
  </g>
  <g id="axes_1">
   <g id="patch_2">
    <path d="M 48.524687 244.078125 
L 606.524688 244.078125 
L 606.524688 22.318125 
L 48.524687 22.318125 
z
" style="fill: #ffffff"/>
   </g>
   <g id="matplotlib.axis_1">
    <g id="xtick_1">
     <g id="line2d_1">
      <path d="M 53.280369 244.078125 
L 53.280369 22.318125 
" clip-path="url(#p6dfbb029db)" style="fill: none; stroke: #cccccc; stroke-linecap: round"/>
     </g>
     <g id="text_1">
      <text style="font-size: 9px; font-family: 'Arial', 'DejaVu Sans', 'Liberation Sans', 'Bitstream Vera Sans', sans-serif; text-anchor: middle; fill: #262626" x="53.280369" y="260.416719" transform="rotate(-0 53.280369 260.416719)">50</text>
     </g>
    </g>
    <g id="xtick_2">
     <g id="line2d_2">
      <path d="M 132.541733 244.078125 
L 132.541733 22.318125 
" clip-path="url(#p6dfbb029db)" style="fill: none; stroke: #cccccc; stroke-linecap: round"/>
     </g>
     <g id="text_2">
      <text style="font-size: 9px; font-family: 'Arial', 'DejaVu Sans', 'Liberation Sans', 'Bitstream Vera Sans', sans-serif; text-anchor: middle; fill: #262626" x="132.541733" y="260.416719" transform="rotate(-0 132.541733 260.416719)">100</text>
     </g>
    </g>
    <g id="xtick_3">
     <g id="line2d_3">
      <path d="M 211.803097 244.078125 
L 211.803097 22.318125 
" clip-path="url(#p6dfbb029db)" style="fill: none; stroke: #cccccc; stroke-linecap: round"/>
     </g>
     <g id="text_3">
      <text style="font-size: 9px; font-family: 'Arial', 'DejaVu Sans', 'Liberation Sans', 'Bitstream Vera Sans', sans-serif; text-anchor: middle; fill: #262626" x="211.803097" y="260.416719" transform="rotate(-0 211.803097 260.416719)">150</text>
     </g>
    </g>
    <g id="xtick_4">
     <g id="line2d_4">
      <path d="M 291.06446 244.078125 
L 291.06446 22.318125 
" clip-path="url(#p6dfbb029db)" style="fill: none; stroke: #cccccc; stroke-linecap: round"/>
     </g>
     <g id="text_4">
      <text style="font-size: 9px; font-family: 'Arial', 'DejaVu Sans', 'Liberation Sans', 'Bitstream Vera Sans', sans-serif; text-anchor: middle; fill: #262626" x="291.06446" y="260.416719" transform="rotate(-0 291.06446 260.416719)">200</text>
     </g>
    </g>
    <g id="xtick_5">
     <g id="line2d_5">
      <path d="M 370.325824 244.078125 
L 370.325824 22.318125 
" clip-path="url(#p6dfbb029db)" style="fill: none; stroke: #cccccc; stroke-linecap: round"/>
     </g>
     <g id="text_5">
      <text style="font-size: 9px; font-family: 'Arial', 'DejaVu Sans', 'Liberation Sans', 'Bitstream Vera Sans', sans-serif; text-anchor: middle; fill: #262626" x="370.325824" y="260.416719" transform="rotate(-0 370.325824 260.416719)">250</text>
     </g>
    </g>
    <g id="xtick_6">
     <g id="line2d_6">
      <path d="M 449.587188 244.078125 
L 449.587188 22.318125 
" clip-path="url(#p6dfbb029db)" style="fill: none; stroke: #cccccc; stroke-linecap: round"/>
     </g>
     <g id="text_6">
      <text style="font-size: 9px; font-family: 'Arial', 'DejaVu Sans', 'Liberation Sans', 'Bitstream Vera Sans', sans-serif; text-anchor: middle; fill: #262626" x="449.587188" y="260.416719" transform="rotate(-0 449.587188 260.416719)">300</text>
     </g>
    </g>
    <g id="xtick_7">
     <g id="line2d_7">
      <path d="M 528.848551 244.078125 
L 528.848551 22.318125 
" clip-path="url(#p6dfbb029db)" style="fill: none; stroke: #cccccc; stroke-linecap: round"/>
     </g>
     <g id="text_7">
      <text style="font-size: 9px; font-family: 'Arial', 'DejaVu Sans', 'Liberation Sans', 'Bitstream Vera Sans', sans-serif; text-anchor: middle; fill: #262626" x="528.848551" y="260.416719" transform="rotate(-0 528.848551 260.416719)">350</text>
     </g>
    </g>
    <g id="text_8">
     <text style="font-size: 11px; font-family: 'Arial', 'DejaVu Sans', 'Liberation Sans', 'Bitstream Vera Sans', sans-serif; text-anchor: middle; fill: #262626" x="327.524688" y="274.646719" transform="rotate(-0 327.524688 274.646719)">Step</text>
    </g>
   </g>
   <g id="matplotlib.axis_2">
    <g id="ytick_1">
     <g id="line2d_8">
      <path d="M 48.524687 217.873172 
L 606.524688 217.873172 
" clip-path="url(#p6dfbb029db)" style="fill: none; stroke: #cccccc; stroke-linecap: round"/>
     </g>
     <g id="text_9">
      <text style="font-size: 9px; font-family: 'Arial', 'DejaVu Sans', 'Liberation Sans', 'Bitstream Vera Sans', sans-serif; text-anchor: end; fill: #262626" x="39.024687" y="221.292469" transform="rotate(-0 39.024687 221.292469)">40</text>
     </g>
    </g>
    <g id="ytick_2">
     <g id="line2d_9">
      <path d="M 48.524687 185.36933 
L 606.524688 185.36933 
" clip-path="url(#p6dfbb029db)" style="fill: none; stroke: #cccccc; stroke-linecap: round"/>
     </g>
     <g id="text_10">
      <text style="font-size: 9px; font-family: 'Arial', 'DejaVu Sans', 'Liberation Sans', 'Bitstream Vera Sans', sans-serif; text-anchor: end; fill: #262626" x="39.024687" y="188.788627" transform="rotate(-0 39.024687 188.788627)">60</text>
     </g>
    </g>
    <g id="ytick_3">
     <g id="line2d_10">
      <path d="M 48.524687 152.865489 
L 606.524688 152.865489 
" clip-path="url(#p6dfbb029db)" style="fill: none; stroke: #cccccc; stroke-linecap: round"/>
     </g>
     <g id="text_11">
      <text style="font-size: 9px; font-family: 'Arial', 'DejaVu Sans', 'Liberation Sans', 'Bitstream Vera Sans', sans-serif; text-anchor: end; fill: #262626" x="39.024687" y="156.284786" transform="rotate(-0 39.024687 156.284786)">80</text>
     </g>
    </g>
    <g id="ytick_4">
     <g id="line2d_11">
      <path d="M 48.524687 120.361647 
L 606.524688 120.361647 
" clip-path="url(#p6dfbb029db)" style="fill: none; stroke: #cccccc; stroke-linecap: round"/>
     </g>
     <g id="text_12">
      <text style="font-size: 9px; font-family: 'Arial', 'DejaVu Sans', 'Liberation Sans', 'Bitstream Vera Sans', sans-serif; text-anchor: end; fill: #262626" x="39.024687" y="123.780944" transform="rotate(-0 39.024687 123.780944)">100</text>
     </g>
    </g>
    <g id="ytick_5">
     <g id="line2d_12">
      <path d="M 48.524687 87.857805 
L 606.524688 87.857805 
" clip-path="url(#p6dfbb029db)" style="fill: none; stroke: #cccccc; stroke-linecap: round"/>
     </g>
     <g id="text_13">
      <text style="font-size: 9px; font-family: 'Arial', 'DejaVu Sans', 'Liberation Sans', 'Bitstream Vera Sans', sans-serif; text-anchor: end; fill: #262626" x="39.024687" y="91.277102" transform="rotate(-0 39.024687 91.277102)">120</text>
     </g>
    </g>
    <g id="ytick_6">
     <g id="line2d_13">
      <path d="M 48.524687 55.353963 
L 606.524688 55.353963 
" clip-path="url(#p6dfbb029db)" style="fill: none; stroke: #cccccc; stroke-linecap: round"/>
     </g>
     <g id="text_14">
      <text style="font-size: 9px; font-family: 'Arial', 'DejaVu Sans', 'Liberation Sans', 'Bitstream Vera Sans', sans-serif; text-anchor: end; fill: #262626" x="39.024687" y="58.77326" transform="rotate(-0 39.024687 58.77326)">140</text>
     </g>
    </g>
    <g id="ytick_7">
     <g id="line2d_14">
      <path d="M 48.524687 22.850121 
L 606.524688 22.850121 
" clip-path="url(#p6dfbb029db)" style="fill: none; stroke: #cccccc; stroke-linecap: round"/>
     </g>
     <g id="text_15">
      <text style="font-size: 9px; font-family: 'Arial', 'DejaVu Sans', 'Liberation Sans', 'Bitstream Vera Sans', sans-serif; text-anchor: end; fill: #262626" x="39.024687" y="26.269418" transform="rotate(-0 39.024687 26.269418)">160</text>
     </g>
    </g>
    <g id="text_16">
     <text style="font-size: 11px; font-family: 'Arial', 'DejaVu Sans', 'Liberation Sans', 'Bitstream Vera Sans', sans-serif; text-anchor: middle; fill: #262626" x="15.558281" y="133.198125" transform="rotate(-90 15.558281 133.198125)">Singular Value</text>
    </g>
   </g>
   <g id="line2d_15">
    <path d="M 73.888324 57.182304 
L 75.473551 57.588602 
L 77.058778 57.588602 
L 78.644006 54.338218 
L 80.229233 52.713026 
L 81.81446 49.056344 
L 83.399687 47.228003 
L 84.984915 47.83745 
L 86.570142 46.415407 
L 88.155369 43.977619 
L 89.740597 48.243748 
L 91.325824 47.431152 
L 92.911051 49.056344 
L 96.081506 49.056344 
L 97.666733 51.90043 
L 99.25196 51.494132 
L 100.837187 49.462642 
L 102.422415 47.024854 
L 104.007642 42.352427 
L 105.592869 43.977619 
L 107.178097 42.961874 
L 108.763324 40.320936 
L 110.348551 36.664254 
L 111.933778 37.070552 
L 113.519006 33.617019 
L 115.104233 38.492595 
L 116.68946 40.117787 
L 118.274687 44.383917 
L 119.859915 44.993364 
L 121.445142 42.758725 
L 123.030369 47.228003 
L 124.615597 45.196513 
L 126.200824 42.352427 
L 127.786051 40.320936 
L 129.371278 42.961874 
L 130.956506 46.009109 
L 132.541733 44.383917 
L 134.12696 44.790215 
L 135.712187 44.993364 
L 137.297415 44.587066 
L 138.882642 46.821705 
L 142.053097 53.322473 
L 143.638324 50.275238 
L 145.223551 52.713026 
L 146.808778 49.665791 
L 148.394006 49.665791 
L 149.979233 45.399662 
L 151.56446 45.80596 
L 154.734915 44.180768 
L 156.320142 40.320936 
L 157.905369 39.102042 
L 159.490597 40.930383 
L 161.075824 44.180768 
L 162.661051 45.196513 
L 164.246278 44.790215 
L 165.831506 41.539831 
L 167.416733 39.914638 
L 169.00196 39.914638 
L 170.587187 39.711489 
L 172.172415 40.930383 
L 173.757642 43.165023 
L 175.342869 40.117787 
L 176.928097 41.946129 
L 178.513324 46.212258 
L 180.098551 47.634301 
L 181.683778 49.665791 
L 183.269006 51.087834 
L 184.854233 49.259493 
L 186.43946 49.462642 
L 188.024687 48.040599 
L 189.609915 46.212258 
L 191.195142 42.352427 
L 192.780369 41.539831 
L 194.365597 41.74298 
L 195.950824 41.74298 
L 199.121278 36.867403 
L 200.706506 38.086297 
L 202.291733 39.50834 
L 203.87696 42.961874 
L 205.462187 42.555576 
L 207.047415 41.336681 
L 208.632642 40.930383 
L 210.217869 45.399662 
L 211.803097 46.821705 
L 213.388324 49.462642 
L 214.973551 50.275238 
L 216.558778 47.83745 
L 218.144006 46.212258 
L 219.729233 47.431152 
L 221.31446 51.494132 
L 222.899687 49.462642 
L 224.484915 51.494132 
L 226.070142 51.494132 
L 227.655369 50.275238 
L 229.240597 48.650046 
L 230.825824 49.259493 
L 232.411051 48.853195 
L 233.996278 44.587066 
L 235.581506 42.758725 
L 237.166733 41.946129 
L 238.75196 38.289446 
L 240.337187 35.851658 
L 241.922415 35.44536 
L 243.507642 36.257956 
L 245.092869 37.47685 
L 246.678097 37.47685 
L 248.263324 38.086297 
L 249.848551 41.74298 
L 251.433778 41.946129 
L 253.019006 45.196513 
L 254.604233 47.634301 
L 256.18946 51.494132 
L 257.774688 54.744516 
L 259.359915 49.665791 
L 260.945142 49.056344 
L 262.530369 47.634301 
L 264.115597 46.415407 
L 265.700824 50.275238 
L 267.286051 49.86894 
L 268.871278 48.650046 
L 270.456506 46.618556 
L 272.041733 44.993364 
L 273.62696 46.618556 
L 275.212188 48.853195 
L 276.797415 47.83745 
L 278.382642 43.77447 
L 279.967869 43.368172 
L 281.553097 43.165023 
L 283.138324 44.587066 
L 284.723551 46.415407 
L 286.308778 44.587066 
L 287.894006 45.399662 
L 289.479233 44.993364 
L 291.06446 48.243748 
L 292.649688 48.040599 
L 294.234915 49.462642 
L 295.820142 45.196513 
L 297.405369 48.040599 
L 298.990597 50.275238 
L 300.575824 48.040599 
L 302.161051 45.399662 
L 303.746278 43.368172 
L 306.916733 46.212258 
L 308.50196 51.494132 
L 310.087188 48.853195 
L 311.672415 50.884685 
L 313.257642 47.634301 
L 314.842869 47.228003 
L 316.428097 46.618556 
L 318.013324 51.087834 
L 319.598551 50.478387 
L 321.183778 47.024854 
L 322.769006 47.431152 
L 324.354233 48.040599 
L 325.93946 46.212258 
L 327.524688 46.212258 
L 329.109915 43.977619 
L 330.695142 46.821705 
L 332.280369 46.415407 
L 333.865597 46.618556 
L 335.450824 49.86894 
L 337.036051 49.462642 
L 338.621278 51.697281 
L 340.206506 52.103579 
L 341.791733 53.728771 
L 343.37696 53.119324 
L 344.962188 53.728771 
L 346.547415 55.760261 
L 348.132642 53.93192 
L 349.717869 57.182304 
L 351.303097 57.182304 
L 352.888324 56.572857 
L 354.473551 55.557112 
L 356.058778 53.93192 
L 357.644006 53.525622 
L 359.229233 53.728771 
L 360.81446 54.541367 
L 362.399688 55.150814 
L 363.984915 54.135069 
L 365.570142 52.916175 
L 367.155369 49.056344 
L 368.740597 48.650046 
L 370.325824 47.83745 
L 371.911051 48.446897 
L 373.496278 47.024854 
L 375.081506 45.80596 
L 376.666733 49.665791 
L 378.25196 49.665791 
L 379.837188 49.462642 
L 381.422415 48.650046 
L 383.007642 49.86894 
L 384.592869 53.119324 
L 386.178097 55.150814 
L 387.763324 57.791751 
L 389.348551 56.166559 
L 390.933778 54.135069 
L 392.519006 54.338218 
L 394.104233 51.087834 
L 395.68946 51.290983 
L 397.274688 47.431152 
L 398.859915 46.618556 
L 400.445142 44.180768 
L 402.030369 42.961874 
L 403.615597 42.555576 
L 405.200824 43.165023 
L 406.786051 38.898893 
L 408.371278 39.102042 
L 409.956506 40.930383 
L 411.541733 40.930383 
L 413.12696 44.383917 
L 414.712188 43.77447 
L 416.297415 46.009109 
L 417.882642 43.165023 
L 419.467869 40.727234 
L 421.053097 43.368172 
L 422.638324 43.977619 
L 424.223551 39.50834 
L 425.808778 40.117787 
L 427.394006 36.257956 
L 428.979233 39.102042 
L 430.56446 33.820168 
L 432.149688 36.867403 
L 433.734915 37.070552 
L 435.320142 35.242211 
L 436.905369 38.898893 
L 438.490597 37.070552 
L 440.075824 35.851658 
L 441.661051 35.648509 
L 443.246278 34.429615 
L 444.831506 35.039062 
L 446.416733 36.664254 
L 448.00196 39.50834 
L 449.587188 41.133532 
L 451.172415 39.711489 
L 452.757642 39.711489 
L 454.342869 37.679999 
L 455.928097 37.883148 
L 457.513324 39.50834 
L 459.098551 42.149278 
L 460.683778 39.914638 
L 462.269006 37.47685 
L 463.854233 39.102042 
L 465.43946 38.289446 
L 467.024688 41.946129 
L 468.609915 40.727234 
L 470.195142 42.149278 
L 471.780369 43.977619 
L 473.365597 46.009109 
L 474.950824 48.243748 
L 476.536051 47.228003 
L 478.121278 51.290983 
L 479.706506 52.306728 
L 481.291733 52.509877 
L 482.87696 48.446897 
L 484.462188 47.228003 
L 486.047415 46.618556 
L 489.217869 48.650046 
L 490.803097 50.884685 
L 492.388324 51.290983 
L 493.973551 52.103579 
L 495.558778 53.119324 
L 497.144006 55.760261 
L 498.729233 52.103579 
L 500.31446 52.306728 
L 501.899687 51.290983 
L 503.484915 49.665791 
L 505.070142 46.415407 
L 506.655369 46.618556 
L 509.825824 41.336681 
L 511.411051 39.305191 
L 512.996278 37.47685 
L 514.581506 37.273701 
L 516.166733 39.102042 
L 517.75196 41.539831 
L 519.337187 40.727234 
L 520.922415 37.070552 
L 522.507642 36.867403 
L 524.092869 39.50834 
L 525.678097 39.305191 
L 527.263324 38.492595 
L 528.848551 38.492595 
L 530.433778 41.336681 
L 532.019006 40.727234 
L 533.604233 43.368172 
L 535.18946 42.352427 
L 536.774687 39.102042 
L 538.359915 42.352427 
L 539.945142 40.727234 
L 541.530369 39.305191 
L 543.115597 41.74298 
L 544.700824 40.930383 
L 546.286051 39.50834 
L 547.871278 37.883148 
L 549.456506 37.273701 
L 551.041733 36.054807 
L 552.62696 37.070552 
L 554.212187 38.695744 
L 555.797415 35.039062 
L 557.382642 32.398125 
L 558.967869 33.41387 
L 560.553097 38.289446 
L 563.723551 43.77447 
L 565.308778 46.821705 
L 566.894006 47.228003 
L 568.479233 49.056344 
L 570.06446 48.853195 
L 571.649687 49.665791 
L 573.234915 47.83745 
L 574.820142 47.634301 
L 576.405369 47.024854 
L 577.990597 47.228003 
L 579.575824 44.383917 
L 581.161051 44.587066 
L 581.161051 44.587066 
" clip-path="url(#p6dfbb029db)" style="fill: none; stroke: #0173b2; stroke-linecap: round"/>
   </g>
   <g id="line2d_16">
    <path d="M 73.888324 177.852817 
L 75.473551 176.532348 
L 77.058778 176.227625 
L 78.644006 175.618178 
L 80.229233 175.21188 
L 81.81446 173.688262 
L 83.399687 172.774092 
L 84.984915 172.875666 
L 86.570142 173.485113 
L 88.155369 173.383539 
L 89.740597 175.110305 
L 91.325824 176.227625 
L 92.911051 176.633923 
L 94.496278 177.24337 
L 96.081506 177.344944 
L 99.25196 180.087456 
L 100.837187 178.919349 
L 102.422415 177.954392 
L 104.007642 174.907156 
L 105.592869 173.992986 
L 107.178097 172.875666 
L 108.763324 171.555198 
L 110.348551 169.828431 
L 111.933778 169.726857 
L 113.519006 168.914261 
L 115.104233 171.047325 
L 116.68946 171.859921 
L 118.274687 172.977241 
L 119.859915 174.297709 
L 121.445142 173.992986 
L 123.030369 175.618178 
L 124.615597 175.618178 
L 126.200824 174.500858 
L 127.786051 173.078815 
L 129.371278 173.789837 
L 130.956506 174.907156 
L 132.541733 174.500858 
L 134.12696 175.110305 
L 135.712187 174.602433 
L 137.297415 173.891411 
L 138.882642 173.586688 
L 140.467869 174.09456 
L 142.053097 175.21188 
L 143.638324 172.672517 
L 146.808778 172.164645 
L 148.394006 172.367794 
L 149.979233 170.539453 
L 151.56446 170.945751 
L 153.149687 170.742602 
L 154.734915 171.555198 
L 156.320142 169.625282 
L 157.905369 169.828431 
L 162.661051 175.516603 
L 164.246278 176.024476 
L 165.831506 175.719752 
L 170.587187 175.618178 
L 172.172415 174.907156 
L 173.757642 174.602433 
L 175.342869 173.281964 
L 176.928097 172.266219 
L 178.513324 173.281964 
L 180.098551 173.485113 
L 183.269006 175.110305 
L 184.854233 173.688262 
L 186.43946 173.078815 
L 189.609915 173.18039 
L 191.195142 171.250474 
L 194.365597 170.641027 
L 195.950824 171.250474 
L 197.536051 170.539453 
L 199.121278 169.625282 
L 200.706506 170.539453 
L 202.291733 171.758347 
L 203.87696 173.688262 
L 205.462187 174.196135 
L 207.047415 173.586688 
L 208.632642 172.672517 
L 210.217869 173.18039 
L 211.803097 173.992986 
L 213.388324 174.602433 
L 214.973551 176.024476 
L 216.558778 174.399284 
L 218.144006 173.485113 
L 219.729233 173.383539 
L 221.31446 174.907156 
L 222.899687 174.907156 
L 224.484915 174.297709 
L 226.070142 175.719752 
L 227.655369 176.12605 
L 229.240597 175.618178 
L 230.825824 174.907156 
L 232.411051 174.704007 
L 233.996278 173.18039 
L 238.75196 170.641027 
L 240.337187 169.218984 
L 241.922415 168.507963 
L 243.507642 167.492217 
L 245.092869 167.898515 
L 246.678097 167.289068 
L 248.263324 168.406388 
L 249.848551 170.437878 
L 251.433778 172.06307 
L 253.019006 173.485113 
L 254.604233 175.110305 
L 257.774688 180.798478 
L 260.945142 178.259115 
L 264.115597 175.618178 
L 265.700824 176.837072 
L 267.286051 177.24337 
L 268.871278 176.735497 
L 270.456506 175.922901 
L 272.041733 174.297709 
L 273.62696 173.485113 
L 275.212188 174.196135 
L 276.797415 173.485113 
L 278.382642 171.047325 
L 279.967869 170.539453 
L 283.138324 170.437878 
L 284.723551 171.352049 
L 286.308778 171.758347 
L 287.894006 173.18039 
L 289.479233 173.789837 
L 291.06446 175.415029 
L 292.649688 176.532348 
L 294.234915 177.24337 
L 295.820142 176.532348 
L 297.405369 177.24337 
L 298.990597 179.071711 
L 300.575824 178.868562 
L 302.161051 177.141795 
L 303.746278 175.618178 
L 305.331506 175.110305 
L 306.916733 175.618178 
L 308.50196 178.055966 
L 310.087188 177.852817 
L 311.672415 178.259115 
L 313.257642 176.532348 
L 314.842869 175.821327 
L 316.428097 173.789837 
L 318.013324 174.704007 
L 319.598551 175.313454 
L 321.183778 173.992986 
L 322.769006 173.485113 
L 327.524688 175.618178 
L 329.109915 174.704007 
L 330.695142 174.704007 
L 332.280369 173.992986 
L 333.865597 172.164645 
L 335.450824 173.789837 
L 337.036051 172.774092 
L 338.621278 173.383539 
L 340.206506 173.586688 
L 341.791733 174.196135 
L 343.37696 173.485113 
L 344.962188 173.18039 
L 346.547415 174.196135 
L 348.132642 174.297709 
L 349.717869 176.735497 
L 351.303097 178.055966 
L 352.888324 178.665413 
L 354.473551 179.731945 
L 356.058778 179.83352 
L 357.644006 178.868562 
L 359.229233 178.259115 
L 360.81446 179.122498 
L 362.399688 179.376435 
L 363.984915 178.970137 
L 365.570142 178.157541 
L 367.155369 175.821327 
L 368.740597 174.805582 
L 370.325824 173.281964 
L 371.911051 173.485113 
L 373.496278 173.281964 
L 375.081506 172.672517 
L 376.666733 173.891411 
L 378.25196 172.977241 
L 379.837188 173.18039 
L 381.422415 172.977241 
L 383.007642 173.586688 
L 384.592869 174.500858 
L 386.178097 174.805582 
L 387.763324 177.24337 
L 389.348551 176.735497 
L 390.933778 175.922901 
L 392.519006 176.024476 
L 394.104233 173.891411 
L 395.68946 173.891411 
L 397.274688 174.09456 
L 398.859915 173.789837 
L 400.445142 172.672517 
L 402.030369 172.875666 
L 403.615597 173.688262 
L 405.200824 174.805582 
L 406.786051 173.586688 
L 408.371278 173.485113 
L 409.956506 174.09456 
L 411.541733 174.09456 
L 413.12696 175.313454 
L 414.712188 175.821327 
L 416.297415 176.837072 
L 417.882642 175.313454 
L 419.467869 172.672517 
L 421.053097 173.281964 
L 422.638324 174.399284 
L 424.223551 172.774092 
L 425.808778 172.469368 
L 427.394006 170.437878 
L 428.979233 171.047325 
L 430.56446 169.930006 
L 432.149688 169.218984 
L 433.734915 169.320559 
L 435.320142 169.015835 
L 436.905369 170.336304 
L 438.490597 170.437878 
L 441.661051 169.930006 
L 443.246278 169.11741 
L 444.831506 169.320559 
L 448.00196 172.672517 
L 449.587188 174.704007 
L 451.172415 173.891411 
L 452.757642 174.602433 
L 454.342869 173.992986 
L 455.928097 173.891411 
L 457.513324 174.399284 
L 459.098551 175.618178 
L 460.683778 174.500858 
L 462.269006 173.586688 
L 463.854233 173.281964 
L 465.43946 171.656772 
L 467.024688 172.164645 
L 468.609915 170.844176 
L 470.195142 170.437878 
L 471.780369 171.352049 
L 473.365597 171.1489 
L 474.950824 172.469368 
L 476.536051 171.859921 
L 478.121278 172.164645 
L 479.706506 173.586688 
L 481.291733 173.688262 
L 482.87696 172.570943 
L 484.462188 171.859921 
L 486.047415 171.758347 
L 487.632642 171.961496 
L 489.217869 171.1489 
L 490.803097 171.961496 
L 492.388324 171.656772 
L 493.973551 170.641027 
L 495.558778 171.352049 
L 497.144006 173.586688 
L 498.729233 172.06307 
L 500.31446 172.367794 
L 501.899687 173.383539 
L 503.484915 173.281964 
L 505.070142 171.656772 
L 506.655369 171.961496 
L 508.240597 173.078815 
L 509.825824 172.469368 
L 512.996278 173.078815 
L 514.581506 172.875666 
L 516.166733 174.09456 
L 517.75196 175.821327 
L 519.337187 176.735497 
L 520.922415 176.12605 
L 522.507642 175.313454 
L 524.092869 175.719752 
L 525.678097 175.719752 
L 527.263324 174.907156 
L 528.848551 175.719752 
L 530.433778 175.415029 
L 532.019006 174.602433 
L 533.604233 174.805582 
L 535.18946 174.297709 
L 536.774687 171.352049 
L 538.359915 170.844176 
L 539.945142 169.726857 
L 541.530369 168.812686 
L 544.700824 169.726857 
L 546.286051 170.234729 
L 547.871278 169.523708 
L 549.456506 169.015835 
L 551.041733 169.015835 
L 552.62696 171.250474 
L 554.212187 172.06307 
L 555.797415 171.758347 
L 557.382642 171.961496 
L 558.967869 171.859921 
L 560.553097 172.367794 
L 562.138324 174.399284 
L 563.723551 175.719752 
L 565.308778 177.344944 
L 566.894006 177.954392 
L 568.479233 177.548094 
L 570.06446 177.446519 
L 571.649687 177.852817 
L 573.234915 176.430774 
L 574.820142 176.024476 
L 576.405369 175.110305 
L 577.990597 175.415029 
L 579.575824 173.891411 
L 581.161051 174.297709 
L 581.161051 174.297709 
" clip-path="url(#p6dfbb029db)" style="fill: none; stroke: #de8f05; stroke-linecap: round"/>
   </g>
   <g id="line2d_17">
    <path d="M 73.888324 213.810192 
L 75.473551 212.286574 
L 78.644006 211.880276 
L 80.229233 211.829489 
L 83.399687 211.524766 
L 84.984915 211.727915 
L 86.570142 212.083425 
L 88.155369 212.083425 
L 89.740597 212.489723 
L 91.325824 213.403894 
L 94.496278 213.149958 
L 96.081506 212.235787 
L 97.666733 211.931064 
L 99.25196 212.032638 
L 100.837187 211.06768 
L 102.422415 210.559808 
L 104.007642 209.797999 
L 105.592869 209.950361 
L 107.178097 209.848786 
L 108.763324 209.950361 
L 110.348551 209.645637 
L 111.933778 210.356659 
L 113.519006 210.255084 
L 116.68946 211.931064 
L 118.274687 211.981851 
L 119.859915 212.235787 
L 121.445142 210.966106 
L 123.030369 211.016893 
L 127.786051 208.833041 
L 129.371278 209.340914 
L 130.956506 209.59485 
L 132.541733 210.051935 
L 134.12696 209.950361 
L 135.712187 210.356659 
L 137.297415 211.016893 
L 138.882642 211.423191 
L 140.467869 211.62634 
L 142.053097 212.286574 
L 143.638324 211.169255 
L 145.223551 210.864531 
L 146.808778 210.864531 
L 148.394006 211.016893 
L 149.979233 210.864531 
L 151.56446 211.270829 
L 153.149687 211.372404 
L 154.734915 212.286574 
L 156.320142 211.473978 
L 157.905369 211.321617 
L 159.490597 212.286574 
L 161.075824 212.997596 
L 162.661051 213.251532 
L 164.246278 211.880276 
L 165.831506 210.15351 
L 167.416733 209.086978 
L 170.587187 207.817296 
L 172.172415 207.106275 
L 173.757642 207.258636 
L 175.342869 207.0047 
L 176.928097 207.309424 
L 178.513324 209.544063 
L 180.098551 210.966106 
L 181.683778 212.540511 
L 183.269006 213.911767 
L 184.854233 213.251532 
L 186.43946 213.607043 
L 188.024687 214.77515 
L 189.609915 215.33381 
L 191.195142 214.419639 
L 192.780369 214.21649 
L 194.365597 212.946809 
L 195.950824 212.185 
L 197.536051 210.966106 
L 199.121278 209.950361 
L 200.706506 209.493276 
L 202.291733 209.340914 
L 203.87696 209.442488 
L 207.047415 208.12202 
L 208.632642 207.766509 
L 210.217869 208.731467 
L 213.388324 211.169255 
L 214.973551 212.692872 
L 216.558778 212.388149 
L 218.144006 212.794447 
L 219.729233 212.997596 
L 221.31446 213.860979 
L 224.484915 213.09917 
L 226.070142 214.013341 
L 227.655369 213.860979 
L 229.240597 213.403894 
L 230.825824 212.337362 
L 232.411051 211.677127 
L 233.996278 210.102723 
L 240.337187 208.680679 
L 241.922415 209.137765 
L 243.507642 208.934616 
L 245.092869 209.442488 
L 246.678097 208.934616 
L 248.263324 209.239339 
L 249.848551 209.950361 
L 251.433778 210.305872 
L 253.019006 210.305872 
L 254.604233 211.118468 
L 256.18946 211.778702 
L 257.774688 213.962554 
L 259.359915 212.997596 
L 260.945142 211.473978 
L 262.530369 210.15351 
L 264.115597 209.137765 
L 265.700824 210.051935 
L 267.286051 210.559808 
L 268.871278 210.661382 
L 272.041733 209.747212 
L 273.62696 209.950361 
L 276.797415 212.134213 
L 278.382642 211.423191 
L 279.967869 211.321617 
L 281.553097 211.727915 
L 284.723551 211.677127 
L 286.308778 211.270829 
L 287.894006 211.372404 
L 289.479233 211.321617 
L 291.06446 211.473978 
L 292.649688 211.169255 
L 294.234915 211.220042 
L 295.820142 210.102723 
L 297.405369 210.001148 
L 298.990597 211.372404 
L 300.575824 211.931064 
L 302.161051 211.829489 
L 305.331506 212.032638 
L 306.916733 212.794447 
L 308.50196 214.21649 
L 310.087188 213.810192 
L 311.672415 213.759405 
L 313.257642 212.74366 
L 316.428097 211.06768 
L 318.013324 211.981851 
L 319.598551 213.302319 
L 321.183778 213.302319 
L 322.769006 212.438936 
L 325.93946 212.540511 
L 327.524688 212.997596 
L 329.109915 211.931064 
L 330.695142 211.62634 
L 332.280369 210.610595 
L 333.865597 209.239339 
L 335.450824 209.848786 
L 337.036051 209.188552 
L 338.621278 209.544063 
L 340.206506 210.356659 
L 341.791733 210.864531 
L 344.962188 211.524766 
L 346.547415 212.438936 
L 348.132642 213.556256 
L 349.717869 215.384597 
L 352.888324 215.994044 
L 354.473551 215.892469 
L 356.058778 214.419639 
L 357.644006 213.200745 
L 359.229233 212.388149 
L 362.399688 212.489723 
L 363.984915 212.540511 
L 365.570142 212.896021 
L 367.155369 212.134213 
L 368.740597 211.880276 
L 370.325824 210.864531 
L 371.911051 211.727915 
L 373.496278 212.235787 
L 375.081506 211.62634 
L 376.666733 211.829489 
L 379.837188 211.829489 
L 381.422415 211.220042 
L 383.007642 211.372404 
L 386.178097 212.134213 
L 387.763324 213.607043 
L 389.348551 212.438936 
L 390.933778 211.880276 
L 392.519006 212.032638 
L 394.104233 211.473978 
L 395.68946 211.880276 
L 397.274688 212.946809 
L 398.859915 212.845234 
L 400.445142 212.489723 
L 402.030369 212.388149 
L 403.615597 213.09917 
L 405.200824 213.454681 
L 406.786051 212.032638 
L 408.371278 210.966106 
L 409.956506 210.407446 
L 411.541733 209.59485 
L 413.12696 209.086978 
L 414.712188 208.985403 
L 416.297415 209.290127 
L 417.882642 209.086978 
L 419.467869 208.47753 
L 421.053097 209.239339 
L 422.638324 210.559808 
L 424.223551 210.458233 
L 425.808778 210.762957 
L 427.394006 209.747212 
L 428.979233 209.950361 
L 430.56446 209.797999 
L 432.149688 208.680679 
L 433.734915 208.47753 
L 435.320142 208.12202 
L 436.905369 208.375956 
L 440.075824 207.512573 
L 441.661051 208.071232 
L 443.246278 208.426743 
L 444.831506 208.629892 
L 446.416733 209.797999 
L 448.00196 211.270829 
L 449.587188 212.489723 
L 451.172415 211.778702 
L 452.757642 211.778702 
L 454.342869 210.864531 
L 455.928097 210.255084 
L 457.513324 210.15351 
L 459.098551 210.661382 
L 460.683778 209.645637 
L 462.269006 208.782254 
L 463.854233 208.375956 
L 465.43946 208.172807 
L 468.609915 209.391701 
L 470.195142 210.305872 
L 471.780369 211.677127 
L 473.365597 211.62634 
L 474.950824 212.185 
L 476.536051 211.575553 
L 478.121278 211.829489 
L 479.706506 211.727915 
L 481.291733 211.778702 
L 482.87696 210.001148 
L 484.462188 209.086978 
L 489.217869 209.086978 
L 493.973551 209.544063 
L 495.558778 210.255084 
L 497.144006 211.880276 
L 498.729233 211.575553 
L 500.31446 211.880276 
L 501.899687 212.692872 
L 503.484915 212.489723 
L 505.070142 211.575553 
L 506.655369 211.270829 
L 508.240597 211.829489 
L 514.581506 209.59485 
L 516.166733 209.797999 
L 520.922415 209.290127 
L 522.507642 208.579105 
L 524.092869 208.528318 
L 527.263324 207.969658 
L 528.848551 208.579105 
L 532.019006 209.290127 
L 533.604233 209.899574 
L 536.774687 210.559808 
L 539.945142 212.489723 
L 543.115597 213.860979 
L 544.700824 214.825937 
L 546.286051 215.232235 
L 547.871278 214.673575 
L 549.456506 213.759405 
L 551.041733 212.591298 
L 552.62696 212.489723 
L 554.212187 211.981851 
L 557.382642 209.239339 
L 560.553097 207.715722 
L 562.138324 207.918871 
L 563.723551 208.325169 
L 565.308778 208.274381 
L 566.894006 208.680679 
L 568.479233 209.290127 
L 570.06446 210.255084 
L 571.649687 210.762957 
L 573.234915 211.118468 
L 574.820142 212.438936 
L 576.405369 213.149958 
L 577.990597 214.368852 
L 579.575824 213.860979 
L 581.161051 214.114916 
L 581.161051 214.114916 
" clip-path="url(#p6dfbb029db)" style="fill: none; stroke: #029e73; stroke-linecap: round"/>
   </g>
   <g id="line2d_18">
    <path d="M 73.888324 230.976283 
L 75.473551 230.823922 
L 77.058778 231.331794 
L 78.644006 231.50955 
L 80.229233 232.322146 
L 81.81446 232.093603 
L 83.399687 232.449114 
L 84.984915 232.42372 
L 86.570142 232.576082 
L 88.155369 231.712699 
L 89.740597 231.86506 
L 91.325824 231.763486 
L 94.496278 231.357188 
L 96.081506 231.534943 
L 97.666733 231.915848 
L 99.25196 232.931593 
L 100.837187 232.931593 
L 102.422415 233.109348 
L 104.007642 232.372933 
L 105.592869 232.626869 
L 107.178097 232.728444 
L 108.763324 231.738092 
L 110.348551 230.569985 
L 111.933778 230.519198 
L 113.519006 229.452666 
L 115.104233 230.722347 
L 119.859915 232.14439 
L 121.445142 231.763486 
L 123.030369 232.753837 
L 126.200824 233.007774 
L 127.786051 232.830018 
L 129.371278 233.388678 
L 130.956506 233.54104 
L 132.541733 232.017422 
L 134.12696 231.433369 
L 135.712187 230.417624 
L 137.297415 229.757389 
L 138.882642 229.452666 
L 140.467869 230.062113 
L 142.053097 231.458762 
L 143.638324 231.484156 
L 145.223551 232.14439 
L 146.808778 231.992029 
L 148.394006 232.550688 
L 149.979233 231.661911 
L 151.56446 231.941241 
L 153.149687 231.306401 
L 154.734915 231.890454 
L 156.320142 230.874709 
L 157.905369 230.519198 
L 159.490597 231.103252 
L 162.661051 231.78888 
L 165.831506 229.452666 
L 167.416733 229.960538 
L 169.00196 230.163687 
L 170.587187 230.722347 
L 172.172415 230.976283 
L 173.757642 230.773134 
L 175.342869 230.265262 
L 176.928097 229.605028 
L 178.513324 230.062113 
L 180.098551 230.011326 
L 183.269006 230.900103 
L 184.854233 230.265262 
L 186.43946 230.67156 
L 188.024687 231.611124 
L 189.609915 232.372933 
L 191.195142 232.14439 
L 192.780369 232.601476 
L 194.365597 232.779231 
L 195.950824 232.753837 
L 197.536051 232.017422 
L 200.706506 231.027071 
L 202.291733 231.281007 
L 203.87696 231.407975 
L 205.462187 231.407975 
L 207.047415 230.620773 
L 208.632642 230.163687 
L 210.217869 230.519198 
L 211.803097 231.103252 
L 213.388324 231.357188 
L 214.973551 232.042816 
L 216.558778 231.204826 
L 218.144006 230.519198 
L 219.729233 230.468411 
L 221.31446 231.077858 
L 222.899687 232.017422 
L 224.484915 231.915848 
L 227.655369 233.312497 
L 229.240597 233.744189 
L 230.825824 233.210923 
L 233.996278 231.534943 
L 235.581506 232.042816 
L 237.166733 231.890454 
L 238.75196 231.560337 
L 240.337187 231.712699 
L 241.922415 232.068209 
L 243.507642 231.738092 
L 245.092869 231.661911 
L 246.678097 230.366836 
L 248.263324 230.011326 
L 249.848551 230.1129 
L 251.433778 230.67156 
L 253.019006 231.077858 
L 254.604233 231.839667 
L 256.18946 231.58573 
L 257.774688 232.652263 
L 259.359915 232.931593 
L 260.945142 232.499901 
L 262.530369 231.890454 
L 264.115597 231.966635 
L 265.700824 232.855412 
L 267.286051 233.058561 
L 268.871278 233.058561 
L 270.456506 232.245965 
L 273.62696 231.077858 
L 275.212188 230.95089 
L 276.797415 230.519198 
L 278.382642 229.757389 
L 279.967869 230.163687 
L 281.553097 231.001677 
L 283.138324 232.118997 
L 284.723551 232.550688 
L 286.308778 232.068209 
L 287.894006 232.220571 
L 289.479233 231.78888 
L 291.06446 231.992029 
L 292.649688 232.626869 
L 294.234915 233.414072 
L 295.820142 232.576082 
L 297.405369 232.499901 
L 298.990597 233.083954 
L 302.161051 231.661911 
L 305.331506 231.484156 
L 306.916733 232.195178 
L 308.50196 232.652263 
L 310.087188 231.738092 
L 311.672415 231.839667 
L 313.257642 231.128645 
L 314.842869 231.103252 
L 316.428097 230.722347 
L 318.013324 231.58573 
L 319.598551 232.245965 
L 321.183778 232.525295 
L 322.769006 232.677656 
L 324.354233 232.372933 
L 325.93946 231.357188 
L 327.524688 231.204826 
L 329.109915 230.874709 
L 330.695142 231.281007 
L 332.280369 230.722347 
L 333.865597 229.909751 
L 335.450824 231.534943 
L 337.036051 232.017422 
L 338.621278 232.753837 
L 340.206506 233.033167 
L 341.791733 233.947338 
L 343.37696 232.779231 
L 344.962188 231.458762 
L 346.547415 230.519198 
L 348.132642 229.909751 
L 349.717869 231.23022 
L 351.303097 232.169784 
L 352.888324 232.830018 
L 354.473551 233.210923 
L 356.058778 232.804625 
L 357.644006 231.738092 
L 359.229233 231.407975 
L 360.81446 232.753837 
L 362.399688 233.236316 
L 363.984915 233.185529 
L 365.570142 232.880805 
L 367.155369 231.890454 
L 368.740597 231.687305 
L 370.325824 231.052464 
L 371.911051 231.306401 
L 373.496278 231.23022 
L 375.081506 230.773134 
L 376.666733 231.611124 
L 378.25196 231.052464 
L 379.837188 231.458762 
L 381.422415 231.560337 
L 384.592869 232.093603 
L 386.178097 231.712699 
L 387.763324 232.372933 
L 389.348551 231.86506 
L 390.933778 231.661911 
L 392.519006 231.941241 
L 394.104233 231.611124 
L 395.68946 231.86506 
L 398.859915 232.601476 
L 400.445142 232.70305 
L 402.030369 232.601476 
L 403.615597 232.245965 
L 405.200824 232.322146 
L 406.786051 231.179432 
L 408.371278 230.976283 
L 409.956506 231.179432 
L 414.712188 233.439465 
L 416.297415 233.998125 
L 417.882642 233.033167 
L 419.467869 231.433369 
L 421.053097 231.738092 
L 422.638324 232.372933 
L 424.223551 231.433369 
L 425.808778 231.611124 
L 427.394006 230.722347 
L 428.979233 231.077858 
L 430.56446 230.366836 
L 432.149688 230.569985 
L 433.734915 229.706602 
L 435.320142 229.706602 
L 436.905369 230.620773 
L 438.490597 231.027071 
L 440.075824 230.823922 
L 441.661051 231.052464 
L 443.246278 230.569985 
L 444.831506 230.214475 
L 446.416733 230.569985 
L 448.00196 230.722347 
L 449.587188 231.712699 
L 451.172415 230.976283 
L 452.757642 230.823922 
L 454.342869 230.1129 
L 455.928097 230.163687 
L 457.513324 230.722347 
L 459.098551 231.636518 
L 460.683778 231.58573 
L 462.269006 230.519198 
L 463.854233 230.519198 
L 465.43946 230.1129 
L 467.024688 230.95089 
L 468.609915 230.976283 
L 471.780369 231.407975 
L 473.365597 231.001677 
L 474.950824 231.154039 
L 476.536051 230.214475 
L 478.121278 230.316049 
L 479.706506 231.077858 
L 481.291733 231.712699 
L 482.87696 231.560337 
L 484.462188 232.017422 
L 486.047415 232.855412 
L 487.632642 233.337891 
L 489.217869 232.296752 
L 490.803097 232.347539 
L 492.388324 231.636518 
L 493.973551 230.1129 
L 495.558778 229.706602 
L 497.144006 231.204826 
L 498.729233 231.001677 
L 500.31446 231.027071 
L 503.484915 232.195178 
L 506.655369 231.433369 
L 508.240597 231.661911 
L 509.825824 231.103252 
L 511.411051 231.001677 
L 512.996278 231.50955 
L 514.581506 231.839667 
L 516.166733 232.347539 
L 517.75196 233.083954 
L 520.922415 231.407975 
L 522.507642 231.077858 
L 524.092869 231.179432 
L 525.678097 231.738092 
L 527.263324 231.052464 
L 528.848551 231.458762 
L 530.433778 231.636518 
L 532.019006 231.382581 
L 533.604233 231.433369 
L 535.18946 230.011326 
L 536.774687 229.19873 
L 538.359915 229.757389 
L 539.945142 230.163687 
L 546.286051 232.626869 
L 547.871278 232.245965 
L 549.456506 232.70305 
L 551.041733 232.118997 
L 552.62696 232.855412 
L 554.212187 232.677656 
L 555.797415 231.941241 
L 557.382642 231.86506 
L 560.553097 232.728444 
L 562.138324 232.855412 
L 563.723551 232.296752 
L 566.894006 231.433369 
L 568.479233 230.773134 
L 570.06446 230.773134 
L 571.649687 231.458762 
L 573.234915 231.128645 
L 574.820142 230.468411 
L 576.405369 229.452666 
L 577.990597 229.55424 
L 579.575824 228.64007 
L 581.161051 229.300304 
L 581.161051 229.300304 
" clip-path="url(#p6dfbb029db)" style="fill: none; stroke: #d55e00; stroke-linecap: round"/>
   </g>
   <g id="patch_3">
    <path d="M 48.524687 244.078125 
L 48.524687 22.318125 
" style="fill: none; stroke: #cccccc; stroke-width: 1.25; stroke-linejoin: miter; stroke-linecap: square"/>
   </g>
   <g id="patch_4">
    <path d="M 606.524688 244.078125 
L 606.524688 22.318125 
" style="fill: none; stroke: #cccccc; stroke-width: 1.25; stroke-linejoin: miter; stroke-linecap: square"/>
   </g>
   <g id="patch_5">
    <path d="M 48.524687 244.078125 
L 606.524687 244.078125 
" style="fill: none; stroke: #cccccc; stroke-width: 1.25; stroke-linejoin: miter; stroke-linecap: square"/>
   </g>
   <g id="patch_6">
    <path d="M 48.524687 22.318125 
L 606.524687 22.318125 
" style="fill: none; stroke: #cccccc; stroke-width: 1.25; stroke-linejoin: miter; stroke-linecap: square"/>
   </g>
   <g id="text_17">
    <text style="font-size: 12px; font-family: 'Arial', 'DejaVu Sans', 'Liberation Sans', 'Bitstream Vera Sans', sans-serif; text-anchor: middle; fill: #262626" x="327.524688" y="16.318125" transform="rotate(-0 327.524688 16.318125)">Spectrum Trajectory (seq=0, layer=0)</text>
   </g>
   <g id="legend_1">
    <g id="patch_7">
     <path d="M 566.444687 157.883125 
L 600.924688 157.883125 
Q 602.524688 157.883125 602.524688 156.283125 
L 602.524688 110.113125 
Q 602.524688 108.513125 600.924688 108.513125 
L 566.444687 108.513125 
Q 564.844687 108.513125 564.844687 110.113125 
L 564.844687 156.283125 
Q 564.844687 157.883125 566.444687 157.883125 
z
" style="fill: #ffffff; opacity: 0.8; stroke: #cccccc; stroke-linejoin: miter"/>
    </g>
    <g id="line2d_19">
     <path d="M 568.044688 114.991875 
L 576.044688 114.991875 
L 584.044688 114.991875 
" style="fill: none; stroke: #0173b2; stroke-linecap: round"/>
    </g>
    <g id="text_18">
     <!-- $\sigma_{1}$ -->
     <g style="fill: #262626" transform="translate(590.444687 117.791875)">
      <text>
       <tspan x="0" y="-0.625" style="font-style: oblique; font-size: 8px; font-family: 'DejaVu Sans'; fill: #262626">σ</tspan>
       <tspan x="5.070312" y="0.6875" style="font-size: 5.6px; font-family: 'DejaVu Sans'; fill: #262626">1</tspan>
      </text>
     </g>
    </g>
    <g id="line2d_20">
     <path d="M 568.044688 126.734375 
L 576.044688 126.734375 
L 584.044688 126.734375 
" style="fill: none; stroke: #de8f05; stroke-linecap: round"/>
    </g>
    <g id="text_19">
     <!-- $\sigma_{2}$ -->
     <g style="fill: #262626" transform="translate(590.444687 129.534375)">
      <text>
       <tspan x="0" y="-0.625" style="font-style: oblique; font-size: 8px; font-family: 'DejaVu Sans'; fill: #262626">σ</tspan>
       <tspan x="5.070312" y="0.6875" style="font-size: 5.6px; font-family: 'DejaVu Sans'; fill: #262626">2</tspan>
      </text>
     </g>
    </g>
    <g id="line2d_21">
     <path d="M 568.044688 138.476875 
L 576.044688 138.476875 
L 584.044688 138.476875 
" style="fill: none; stroke: #029e73; stroke-linecap: round"/>
    </g>
    <g id="text_20">
     <!-- $\sigma_{3}$ -->
     <g style="fill: #262626" transform="translate(590.444687 141.276875)">
      <text>
       <tspan x="0" y="-0.625" style="font-style: oblique; font-size: 8px; font-family: 'DejaVu Sans'; fill: #262626">σ</tspan>
       <tspan x="5.070312" y="0.6875" style="font-size: 5.6px; font-family: 'DejaVu Sans'; fill: #262626">3</tspan>
      </text>
     </g>
    </g>
    <g id="line2d_22">
     <path d="M 568.044688 150.219375 
L 576.044688 150.219375 
L 584.044688 150.219375 
" style="fill: none; stroke: #d55e00; stroke-linecap: round"/>
    </g>
    <g id="text_21">
     <!-- $\sigma_{4}$ -->
     <g style="fill: #262626" transform="translate(590.444687 153.019375)">
      <text>
       <tspan x="0" y="-0.625" style="font-style: oblique; font-size: 8px; font-family: 'DejaVu Sans'; fill: #262626">σ</tspan>
       <tspan x="5.070312" y="0.6875" style="font-size: 5.6px; font-family: 'DejaVu Sans'; fill: #262626">4</tspan>
      </text>
     </g>
    </g>
   </g>
  </g>
 </g>
 <defs>
  <clipPath id="p6dfbb029db">
   <rect x="48.524687" y="22.318125" width="558" height="221.76"/>
  </clipPath>
 </defs>
</svg>
